<svg version="1.1" id="Layer_1" xmlns="http://www.w3.org/2000/svg" xmlns:xlink="http://www.w3.org/1999/xlink" x="0px" y="0px"
	 width="100%" viewBox="0 0 512 512" enable-background="new 0 0 512 512" xml:space="preserve">
<path fill="#FEFFFF" opacity="1.000000" stroke="none" 
	d="
M1.000000,178.000000 
	C1.000000,118.666664 1.000000,59.833332 1.000000,1.000000 
	C171.666672,1.000000 342.333344,1.000000 513.000000,1.000000 
	C513.000000,171.666672 513.000000,342.333344 513.000000,513.000000 
	C342.333344,513.000000 171.666672,513.000000 1.000000,513.000000 
	C1.000000,401.500000 1.000000,290.000000 1.000000,178.000000 
M372.818604,398.498627 
	C372.818604,398.498627 372.660339,398.031921 372.770538,397.220642 
	C372.760803,396.129242 372.751038,395.037842 372.917511,393.111664 
	C372.523102,387.432495 372.128723,381.753296 371.927063,375.218109 
	C371.618530,372.596344 371.125885,369.981079 371.033234,367.351685 
	C370.624329,355.751373 370.385468,344.145081 369.972687,332.544922 
	C369.759857,326.563965 368.018433,321.501526 361.379211,320.446777 
	C361.379211,315.153778 361.379211,310.245300 361.379211,306.421661 
	C368.463837,304.872711 375.349121,304.365173 381.345093,301.788269 
	C387.924744,298.960510 392.177795,292.927246 392.861603,285.539886 
	C393.402863,279.692474 393.497253,273.812408 389.957123,268.291473 
	C383.558319,258.312286 374.125458,255.790939 362.042572,257.163025 
	C363.830872,253.700760 364.574463,251.229340 366.121033,249.459702 
	C370.811493,244.092728 375.749512,238.936157 380.710083,233.812759 
	C386.022552,228.325851 386.694641,223.888290 382.202911,217.635757 
	C378.594513,212.612762 374.450867,207.974289 370.009857,202.506607 
	C375.726593,200.281921 381.078674,197.682922 386.718781,196.129807 
	C394.453217,193.999939 402.427826,192.758011 410.258759,190.958160 
	C416.972260,189.415161 419.571716,182.522415 415.396332,177.081619 
	C413.207581,174.229507 410.416687,171.839447 407.969666,169.314926 
	C439.020569,164.507294 460.359406,137.132797 456.957001,110.154755 
	C456.705383,92.303352 448.077820,78.215698 435.985382,65.163200 
	C437.594421,65.081230 438.390472,65.016006 439.187317,65.003914 
	C447.070038,64.884186 448.998505,62.904465 448.999695,54.906937 
	C449.001099,45.410034 449.004578,35.913132 448.998535,26.416235 
	C448.993622,18.704618 447.330566,17.003584 439.757111,17.002214 
	C409.933502,16.996824 380.109924,16.999998 350.286316,17.000000 
	C258.149719,17.000002 166.013138,16.998108 73.876541,17.003775 
	C66.850258,17.004208 65.017975,18.826803 65.003960,25.782904 
	C64.987167,34.113483 65.000008,42.444122 65.000000,50.774738 
	C64.999992,63.838280 64.999992,63.838280 77.217682,65.433624 
	C37.073898,107.706497 59.597576,162.212021 105.455551,169.375076 
	C103.527679,171.512619 101.240601,173.901611 99.119583,176.429916 
	C94.321899,182.148834 96.652420,189.278839 103.896858,190.976135 
	C108.691833,192.099533 113.538780,192.999695 118.356750,194.026627 
	C127.210205,195.913712 136.037735,197.879257 143.501266,203.089844 
	C139.254318,208.328476 134.919556,213.300308 131.021515,218.593704 
	C127.431305,223.469101 128.103134,228.533569 132.407120,232.901077 
	C136.500076,237.054459 140.888458,240.945541 144.692810,245.344696 
	C147.390717,248.464432 149.333267,252.237411 152.364761,256.866882 
	C142.845581,256.827911 134.984634,256.669861 128.593582,262.766205 
	C122.258728,268.808929 119.731140,276.049500 121.179993,284.316345 
	C121.940140,288.653625 123.897316,293.133423 126.459892,296.733063 
	C132.843826,305.700531 142.767395,305.598663 152.730621,304.928650 
	C152.730621,310.506439 152.730621,315.432648 152.730621,320.326050 
	C145.936264,322.318115 144.193314,324.995026 143.986191,333.157715 
	C143.708405,344.105408 143.377136,355.052246 142.980026,365.996185 
	C142.721893,373.110107 142.302368,380.218140 141.960953,387.329071 
	C141.357986,399.888397 140.759415,412.447906 140.036926,425.860291 
	C139.683517,432.961426 139.317245,440.061981 138.979416,447.163849 
	C138.311417,461.207458 137.584595,475.248901 137.043808,489.297485 
	C136.871841,493.764740 139.935287,496.973450 144.183517,496.972870 
	C180.124084,496.968109 216.064651,496.898041 252.931320,496.963776 
	C257.637421,496.922668 262.343506,496.881592 267.968719,496.964661 
	C272.997101,496.922882 278.025482,496.881073 283.973145,496.966614 
	C289.000916,496.923889 294.028717,496.881195 299.976257,496.970398 
	C305.330872,496.926147 310.685516,496.881897 316.963257,496.975220 
	C333.740234,496.984467 350.517395,497.036896 367.294159,496.981323 
	C373.817444,496.959717 377.175690,493.781708 376.902771,487.647400 
	C376.254700,473.080353 375.392731,458.522797 374.776581,443.496613 
	C374.776581,443.496613 374.554810,443.058105 374.601471,442.265686 
	C374.528717,441.475983 374.455933,440.686279 374.632294,439.221405 
	C374.322449,433.835541 374.012573,428.449707 373.860321,422.139282 
	C373.509308,417.111938 373.158325,412.084595 372.917145,406.161621 
	C372.845612,403.766937 372.774109,401.372253 372.818604,398.498627 
z"/>
<path fill="#73BFFE" opacity="1.000000" stroke="none" 
	d="
M140.158997,425.007324 
	C140.759415,412.447906 141.357986,399.888397 141.960953,387.329071 
	C142.302368,380.218140 142.721893,373.110107 142.980026,365.996185 
	C143.377136,355.052246 143.708405,344.105408 143.986191,333.157715 
	C144.193314,324.995026 145.936264,322.318115 152.730621,320.326050 
	C152.730621,315.432648 152.730621,310.506439 152.730621,304.928650 
	C142.767395,305.598663 132.843826,305.700531 126.459892,296.733063 
	C123.897316,293.133423 121.940140,288.653625 121.179993,284.316345 
	C119.731140,276.049500 122.258728,268.808929 128.593582,262.766205 
	C134.984634,256.669861 142.845581,256.827911 152.364761,256.866882 
	C149.333267,252.237411 147.390717,248.464432 144.692810,245.344696 
	C140.888458,240.945541 136.500076,237.054459 132.407120,232.901077 
	C128.103134,228.533569 127.431305,223.469101 131.021515,218.593704 
	C134.919556,213.300308 139.254318,208.328476 143.501266,203.089844 
	C136.037735,197.879257 127.210205,195.913712 118.356750,194.026627 
	C113.538780,192.999695 108.691833,192.099533 103.896858,190.976135 
	C96.652420,189.278839 94.321899,182.148834 99.119583,176.429916 
	C101.240601,173.901611 103.527679,171.512619 105.455551,169.375076 
	C59.597576,162.212021 37.073898,107.706497 77.217682,65.433624 
	C64.999992,63.838280 64.999992,63.838280 65.000000,50.774738 
	C65.000008,42.444122 64.987167,34.113483 65.003960,25.782904 
	C65.017975,18.826803 66.850258,17.004208 73.876541,17.003775 
	C166.013138,16.998108 258.149719,17.000002 350.286316,17.000000 
	C380.109924,16.999998 409.933502,16.996824 439.757111,17.002214 
	C447.330566,17.003584 448.993622,18.704618 448.998535,26.416235 
	C449.004578,35.913132 449.001099,45.410034 448.999695,54.906937 
	C448.998505,62.904465 447.070038,64.884186 439.187317,65.003914 
	C438.390472,65.016006 437.594421,65.081230 435.985382,65.163200 
	C448.077820,78.215698 456.705383,92.303352 456.619141,110.752289 
	C450.149414,117.220306 444.017578,123.090790 437.932709,128.563950 
	C446.975830,100.584213 428.248169,77.123413 413.440063,71.736542 
	C430.179779,95.814827 435.658722,120.682541 417.817719,147.227783 
	C416.768890,149.034332 416.364197,150.983047 415.193604,152.187119 
	C407.536041,160.063858 399.733948,167.801025 391.909821,175.513489 
	C391.146912,176.265488 389.913849,176.540497 388.535095,176.999939 
	C379.694244,172.989853 370.954987,170.655365 361.410553,170.904526 
	C346.582428,171.291611 331.779053,181.426132 326.369446,195.765747 
	C327.239105,195.815933 328.053894,195.935455 328.861450,195.898026 
	C335.022766,195.612442 341.180023,195.202042 347.344116,195.027130 
	C350.708801,194.931656 353.456909,194.922180 356.586426,192.289703 
	C365.273651,184.982147 375.486176,180.328476 386.937500,179.286331 
	C385.817902,181.053055 384.845459,182.600266 383.590302,183.867432 
	C375.161072,192.377579 366.637787,200.794769 358.236633,209.332321 
	C356.899475,210.691223 356.023865,212.504349 354.541504,214.065765 
	C347.526733,212.189163 341.114227,210.259933 333.904205,211.870651 
	C323.046295,214.296326 311.830322,225.373581 310.296143,236.662170 
	C314.041351,233.447678 317.419495,230.058380 321.271179,227.339966 
	C330.498627,220.827484 340.499878,216.029984 351.839233,215.436188 
	C348.509338,218.914322 345.353485,222.120087 342.184814,225.313126 
	C326.460876,241.158096 310.733551,256.999695 294.541351,272.901947 
	C246.274216,272.974274 198.473145,272.972870 150.672150,273.041229 
	C148.233200,273.044708 145.787338,273.597992 143.358337,273.981689 
	C139.393921,274.607971 137.955231,277.072662 137.941788,280.964203 
	C137.928391,284.847290 139.328339,287.360016 143.288574,288.006165 
	C145.877701,288.428589 148.494843,288.951843 151.100677,288.958679 
	C193.402786,289.069580 235.705093,289.104950 277.839355,289.435730 
	C272.783356,294.756866 267.895386,299.799683 262.541351,304.901947 
	C231.161606,304.961395 200.247940,304.961395 169.324738,304.961395 
	C169.324738,310.702606 169.324738,315.617371 169.324738,321.157440 
	C195.100082,321.157440 220.553726,321.157440 245.839340,321.435730 
	C240.783340,326.756775 235.895386,331.799530 230.541321,336.901917 
	C207.166489,336.961578 184.257767,336.961578 161.552963,336.961578 
	C160.981537,342.353180 160.260727,346.925415 160.052109,351.520874 
	C159.277924,368.574799 158.709717,385.638000 157.966125,402.693451 
	C157.844818,405.475769 157.228653,408.236511 156.561646,411.171753 
	C152.677460,414.901367 149.172195,418.576111 145.418472,421.976593 
	C143.952896,423.304291 141.928757,424.015411 140.158997,425.007324 
M392.500000,33.000000 
	C288.783051,33.000000 185.066116,33.000000 81.318619,33.000000 
	C81.318619,38.690884 81.318619,43.605244 81.318619,48.614288 
	C198.641556,48.614288 315.645477,48.614288 432.681458,48.614288 
	C432.681458,43.308033 432.681458,38.393574 432.681458,33.604103 
	C432.071808,33.352158 431.776123,33.123878 431.479462,33.122627 
	C418.819672,33.069107 406.159851,33.035793 392.500000,33.000000 
M371.016449,133.857132 
	C372.908386,131.514755 374.506714,128.828461 376.757843,126.906860 
	C380.579834,123.644310 382.826233,120.050652 381.443512,114.917793 
	C379.736298,108.580444 375.523224,104.223854 369.265869,103.198730 
	C361.605865,101.943817 354.830750,104.937180 350.036743,111.081795 
	C340.861969,122.841431 346.686127,144.137772 362.861206,150.015778 
	C388.907776,159.481003 413.124084,137.591660 411.783142,112.454338 
	C410.906921,96.028343 403.132721,82.607315 388.980469,73.424896 
	C379.560608,67.313011 369.295502,65.306976 358.086151,65.833313 
	C347.360229,66.336945 337.856384,69.602074 330.042114,76.606361 
	C310.220001,94.373840 305.734406,116.911858 311.000885,142.083603 
	C311.298889,143.507919 312.738434,145.034012 314.057251,145.845200 
	C319.786163,149.368988 326.290802,151.921631 331.299011,156.236771 
	C335.420013,159.787491 338.329956,160.558121 342.340424,157.148666 
	C340.592743,154.959747 338.784210,152.816360 337.107056,150.574677 
	C324.347687,133.520325 324.957672,103.482681 347.239227,91.261276 
	C358.077057,85.316750 369.291016,83.595665 380.781952,89.397346 
	C390.888458,94.500053 396.487671,102.763069 398.604431,113.949280 
	C400.648132,124.749458 393.040588,139.347885 382.661743,142.973541 
	C376.425018,145.152252 371.278473,141.486725 371.016449,133.857132 
M139.492981,152.000000 
	C151.032700,152.424133 159.780472,147.459412 164.962463,137.359924 
	C171.635574,124.354309 169.021774,108.290398 151.738159,103.363525 
	C144.820358,101.391533 136.997711,105.050537 133.780869,111.613449 
	C130.364151,118.584129 131.748734,122.713730 139.312302,128.111008 
	C142.648880,130.491943 144.219650,135.504028 142.633514,138.708481 
	C140.659851,142.695862 135.949829,144.897537 131.833710,142.927689 
	C128.196945,141.187256 124.183243,139.095169 121.820885,136.018265 
	C107.794266,117.748978 117.189850,94.154800 137.813873,87.401787 
	C150.938110,83.104469 163.425262,86.836685 173.599976,96.223839 
	C184.429947,106.215515 186.714951,119.082855 184.441650,133.091614 
	C182.884201,142.689117 177.761353,150.454758 170.987610,157.772949 
	C174.534088,157.725342 176.595016,161.480087 180.561691,158.277527 
	C186.506378,153.477966 193.538300,150.039581 199.990280,145.841644 
	C201.295898,144.992157 202.618790,143.486420 203.014816,142.032883 
	C205.525711,132.817322 205.360703,123.530815 204.118195,114.055695 
	C200.579071,87.067101 178.725830,63.236168 147.670242,65.727768 
	C119.360039,67.999100 97.442276,96.205788 103.129936,122.804375 
	C106.506371,138.594452 122.217896,152.970078 139.492981,152.000000 
M248.702805,153.428482 
	C248.801865,151.776123 248.985916,150.123840 248.987228,148.471405 
	C249.005951,124.831795 249.000000,101.192162 249.000000,77.552528 
	C249.000000,75.961784 249.000000,74.371033 249.000000,72.780289 
	C248.441940,72.487465 247.883881,72.194633 247.325821,71.901810 
	C242.588287,78.487640 237.190933,84.703529 233.248566,91.735176 
	C224.649704,107.072205 222.939438,123.969757 224.132370,141.222916 
	C224.221832,142.516693 225.870453,144.212540 227.205460,144.824661 
	C234.056351,147.965881 241.041901,150.813446 248.702805,153.428482 
M290.000000,123.701355 
	C287.961182,103.773796 280.960693,86.236549 265.343628,71.983727 
	C265.343628,99.726105 265.343628,126.662506 265.343628,153.077118 
	C272.794098,150.275040 280.161865,147.651184 287.372375,144.649551 
	C288.594299,144.140869 289.800873,142.044846 289.880432,140.618912 
	C290.176453,135.313156 289.999420,129.981018 290.000000,123.701355 
M236.995743,225.496506 
	C242.619217,227.352600 248.231400,229.244156 253.874222,231.039413 
	C255.254532,231.478577 256.919220,232.174301 258.140717,231.781189 
	C268.404419,228.478104 278.595367,224.948898 288.994263,221.424698 
	C272.912506,205.845993 241.013046,205.807495 225.004700,221.490768 
	C228.892090,222.747681 232.586609,223.942230 236.995743,225.496506 
M147.609436,185.875168 
	C150.116684,187.428757 152.592865,189.035538 155.138748,190.522949 
	C158.598907,192.544495 160.922455,196.417374 166.233688,195.196671 
	C170.547989,194.205109 175.278351,194.848511 179.811508,195.051147 
	C182.482895,195.170578 185.129532,195.844223 187.920502,196.289886 
	C177.666794,170.146210 146.853455,164.432541 126.085052,177.549515 
	C132.906158,180.139236 139.938248,182.809067 147.609436,185.875168 
M96.598137,73.136009 
	C80.596367,84.488014 72.256424,99.460022 73.923988,119.566055 
	C74.829666,130.485962 85.805153,144.657288 95.768646,147.676743 
	C79.004196,120.998863 83.270142,95.750244 99.999184,71.073479 
	C99.084778,71.689644 98.170364,72.305817 96.598137,73.136009 
M276.095612,186.718979 
	C280.433350,181.799515 284.288208,176.314377 289.226837,172.098862 
	C295.915619,166.389450 304.537567,165.244232 313.951263,164.750351 
	C300.899261,156.872528 289.181091,160.194199 278.011719,166.689270 
	C268.296356,172.338852 264.450897,181.375046 265.125610,192.066086 
	C270.721527,195.540497 273.731537,193.533218 275.349060,188.273621 
	C275.443451,187.966721 275.690735,187.706848 276.095612,186.718979 
M236.451462,166.962936 
	C222.373093,158.541870 208.751419,157.967194 201.001099,164.967041 
	C218.554611,164.912552 230.996445,173.272095 238.604156,188.534943 
	C241.173813,193.690262 243.720718,195.080658 248.600204,192.290421 
	C249.857666,182.128433 245.504013,172.774170 236.451462,166.962936 
M185.457214,257.000000 
	C188.858673,257.000000 192.260132,257.000000 195.928741,257.000000 
	C190.473709,243.801620 171.554062,231.288040 156.561005,231.645432 
	C156.722610,232.124802 156.754059,232.710327 157.059158,233.050140 
	C162.685211,239.316330 166.424072,246.498306 168.245026,254.764969 
	C168.459183,255.737137 170.657349,256.806824 171.998398,256.896667 
	C176.139862,257.174164 180.311615,256.999237 185.457214,257.000000 
M304.482422,80.024086 
	C308.382477,75.094116 312.282562,70.164146 316.057312,65.392563 
	C305.299835,65.392563 294.484253,65.392563 284.105042,65.392563 
	C289.180298,73.252487 294.198242,81.023643 299.299713,88.924187 
	C300.973938,86.043274 302.539764,83.348862 304.482422,80.024086 
M207.560455,65.000000 
	C204.305786,65.000000 201.051117,65.000000 198.055496,65.000000 
	C203.893585,72.942123 209.615784,80.726601 215.134109,88.233742 
	C219.930969,80.824829 224.951904,73.069809 230.176651,65.000000 
	C222.986938,65.000000 215.764542,65.000000 207.560455,65.000000 
M308.020172,182.483673 
	C297.394257,183.803329 292.784485,191.481583 288.871033,199.769272 
	C294.338837,203.682007 299.332581,207.255493 303.718597,210.394104 
	C306.646973,200.882736 309.552063,191.446945 312.415833,182.145432 
	C311.710052,182.145432 310.228271,182.145432 308.020172,182.483673 
M206.887619,196.877579 
	C207.766174,201.483475 208.644714,206.089355 209.559433,210.884842 
	C214.799744,207.144135 219.806015,203.570480 224.824371,199.988205 
	C220.230301,187.886032 212.753143,181.220459 201.006653,182.582108 
	C202.844193,187.050186 204.709869,191.586731 206.887619,196.877579 
M287.818024,239.622238 
	C282.680817,241.348755 277.544159,243.076996 272.406250,244.801392 
	C263.912781,247.651993 263.828094,247.797455 265.652740,256.533875 
	C282.136810,258.915131 282.490417,258.708771 288.125671,243.815262 
	C288.533295,242.737930 289.264008,241.768890 289.563599,240.672729 
	C289.659546,240.321777 288.848663,239.722992 287.818024,239.622238 
M248.999954,251.649109 
	C248.233826,249.886200 247.890900,247.027679 246.631699,246.541260 
	C239.395935,243.746262 231.943008,241.513458 223.805649,238.841034 
	C226.137924,244.829651 228.063675,249.996094 230.210815,255.068787 
	C230.567108,255.910522 231.873062,256.852051 232.768372,256.881195 
	C238.009811,257.051880 243.259644,256.964996 248.719086,256.964996 
	C248.835983,255.128799 248.917908,253.841919 248.999954,251.649109 
M202.850250,232.532501 
	C195.699173,214.091049 175.759460,205.847900 160.177750,214.674683 
	C177.201828,216.598572 191.581924,224.181152 204.032852,236.320038 
	C203.710785,235.289322 203.388733,234.258591 202.850250,232.532501 
z"/>
<path fill="#73B0FE" opacity="1.000000" stroke="none" 
	d="
M140.097961,425.433807 
	C141.928757,424.015411 143.952896,423.304291 145.418472,421.976593 
	C149.172195,418.576111 152.677460,414.901367 156.622101,411.636108 
	C156.960724,416.932678 157.178467,421.940826 156.917999,426.924042 
	C156.037201,443.775269 154.974258,460.616913 154.030685,477.465027 
	C153.970062,478.547058 154.331223,479.652710 154.484100,480.667053 
	C159.400528,480.667053 163.982590,480.667053 169.000000,480.667053 
	C169.000000,478.380493 169.000000,476.413086 169.000000,474.445648 
	C169.000046,441.464478 168.987686,408.483246 169.031479,375.502136 
	C169.034058,373.555756 169.213058,371.525665 169.778320,369.677765 
	C173.119492,358.755066 181.725052,353.588928 194.282654,352.816467 
	C205.014633,352.156311 217.385803,364.821869 217.204208,375.566345 
	C216.644150,408.704651 216.999969,441.858398 217.000000,475.006165 
	C217.000000,476.917999 217.000000,478.829834 217.000000,480.651581 
	C222.762695,480.651581 227.678452,480.651581 233.000000,480.651581 
	C233.000000,478.338440 233.000000,476.370117 233.000000,474.401794 
	C233.000046,441.420624 232.987335,408.439392 233.032440,375.458282 
	C233.035095,373.513855 233.241791,371.491455 233.798065,369.638824 
	C237.217209,358.251556 246.175217,352.679291 260.293640,353.001038 
	C269.969604,353.221497 280.880463,363.409515 280.924377,373.065338 
	C281.068329,404.710388 280.897766,436.356903 280.513550,468.043396 
	C277.857208,470.151398 275.579346,472.270966 273.202148,474.272522 
	C270.490875,476.555359 267.691071,478.733002 264.956909,480.492188 
	C264.989380,447.374573 265.016296,414.721069 264.956299,382.067749 
	C264.951813,379.625458 264.512909,377.139648 263.944366,374.753052 
	C263.088287,371.159821 260.523926,369.862946 256.927490,369.871674 
	C253.293930,369.880493 250.798294,371.258179 250.040619,374.895386 
	C249.506775,377.458038 249.049179,380.095276 249.043472,382.700256 
	C248.975967,413.520966 249.000046,444.341919 249.000046,475.162781 
	C249.000046,476.941132 249.000046,478.719482 249.000046,480.929779 
	C254.712738,480.929779 259.834564,480.929779 264.938660,481.279236 
	C263.364075,483.502289 261.825287,485.391327 260.246307,487.246124 
	C257.512390,490.457764 254.753601,493.648224 252.005219,496.847565 
	C216.064651,496.898041 180.124084,496.968109 144.183517,496.972870 
	C139.935287,496.973450 136.871841,493.764740 137.043808,489.297485 
	C137.584595,475.248901 138.311417,461.207458 138.979416,447.163849 
	C139.317245,440.061981 139.683517,432.961426 140.097961,425.433807 
M200.993286,478.238647 
	C200.995499,445.944489 201.020721,413.650238 200.953705,381.356232 
	C200.948669,378.924866 200.656845,376.362091 199.844772,374.094482 
	C198.532745,370.430664 195.251862,368.975952 191.822037,370.143738 
	C189.581650,370.906525 187.332916,373.030792 186.159561,375.141083 
	C185.047028,377.141998 185.048019,379.918549 185.042908,382.354980 
	C184.977829,413.317261 185.000046,444.279755 185.000046,475.242188 
	C185.000046,477.011719 185.000061,478.781250 185.000061,480.962219 
	C190.103714,480.962219 194.565659,481.035645 199.019836,480.882721 
	C199.684509,480.859833 200.312668,479.773407 200.993286,478.238647 
z"/>
<path fill="#73B0FE" opacity="1.000000" stroke="none" 
	d="
M263.007416,304.842499 
	C267.895386,299.799683 272.783356,294.756866 278.304230,289.375427 
	C307.074707,289.024445 335.212311,289.035980 363.349701,288.957794 
	C365.787018,288.951019 368.233490,288.416321 370.656525,288.011993 
	C373.997345,287.454590 375.822113,285.614288 376.058105,282.031982 
	C376.302124,278.327423 375.450348,275.330750 371.702271,274.102661 
	C369.554108,273.398804 367.194214,273.057037 364.926971,273.044861 
	C341.620758,272.919586 318.314026,272.895111 295.007416,272.842529 
	C310.733551,256.999695 326.460876,241.158096 342.184814,225.313126 
	C345.353485,222.120087 348.509338,218.914322 352.168152,215.376740 
	C353.421753,214.728531 354.178284,214.417984 354.934845,214.107452 
	C356.023865,212.504349 356.899475,210.691223 358.236633,209.332321 
	C366.637787,200.794769 375.161072,192.377579 383.590302,183.867432 
	C384.845459,182.600266 385.817902,181.053055 386.946655,179.304077 
	C386.972198,178.972778 386.944214,178.964066 387.257019,178.954025 
	C388.036560,178.589737 388.503265,178.235474 388.964539,177.669098 
	C388.959167,177.457001 388.899048,177.036926 388.899048,177.036926 
	C389.913849,176.540497 391.146912,176.265488 391.909821,175.513489 
	C399.733948,167.801025 407.536041,160.063858 415.193604,152.187119 
	C416.364197,150.983047 416.768890,149.034332 417.930603,147.540497 
	C419.644928,147.173737 421.081116,146.900024 422.247528,146.185730 
	C429.123627,141.974869 433.887909,135.807175 437.885742,128.961273 
	C444.017578,123.090790 450.149414,117.220306 456.562561,111.197723 
	C460.359406,137.132797 439.020569,164.507294 407.969666,169.314926 
	C410.416687,171.839447 413.207581,174.229507 415.396332,177.081619 
	C419.571716,182.522415 416.972260,189.415161 410.258759,190.958160 
	C402.427826,192.758011 394.453217,193.999939 386.718781,196.129807 
	C381.078674,197.682922 375.726593,200.281921 370.009857,202.506607 
	C374.450867,207.974289 378.594513,212.612762 382.202911,217.635757 
	C386.694641,223.888290 386.022552,228.325851 380.710083,233.812759 
	C375.749512,238.936157 370.811493,244.092728 366.121033,249.459702 
	C364.574463,251.229340 363.830872,253.700760 362.042572,257.163025 
	C374.125458,255.790939 383.558319,258.312286 389.957123,268.291473 
	C393.497253,273.812408 393.402863,279.692474 392.861603,285.539886 
	C392.177795,292.927246 387.924744,298.960510 381.345093,301.788269 
	C375.349121,304.365173 368.463837,304.872711 361.379211,306.421661 
	C361.379211,310.245300 361.379211,315.153778 361.379211,320.446777 
	C368.018433,321.501526 369.759857,326.563965 369.972687,332.544922 
	C370.385468,344.145081 370.624329,355.751373 371.033234,367.351685 
	C371.125885,369.981079 371.618530,372.596344 371.565186,375.807037 
	C366.191406,380.933319 361.179535,385.470673 356.098511,389.586670 
	C355.686829,387.052429 355.125275,384.948395 355.038971,382.825043 
	C354.621521,372.558746 354.436737,362.282318 353.951294,352.019806 
	C353.719849,347.127045 353.002899,342.257294 352.467468,337.000000 
	C350.327301,337.000000 348.358490,337.002289 346.389648,336.999634 
	C307.928925,336.947540 269.468170,336.894867 231.007446,336.842285 
	C235.895386,331.799530 240.783340,326.756775 246.304230,321.375366 
	C279.516205,321.036774 312.095245,321.036774 344.680481,321.036774 
	C344.680481,315.299194 344.680481,310.382812 344.680481,304.842499 
	C317.245178,304.842499 290.126282,304.842499 263.007416,304.842499 
M342.080475,256.997437 
	C343.390472,255.917435 345.225983,255.099289 345.917633,253.711197 
	C348.609375,248.309219 350.785706,242.650314 353.480011,237.249756 
	C354.500275,235.204651 356.403809,233.600220 358.445648,231.144302 
	C340.240814,233.287277 326.908234,241.089401 317.538025,256.999329 
	C326.014648,256.999329 333.585968,256.999329 342.080475,256.997437 
z"/>
<path fill="#5D5DA8" opacity="1.000000" stroke="none" 
	d="
M374.617188,443.961426 
	C375.392731,458.522797 376.254700,473.080353 376.902771,487.647400 
	C377.175690,493.781708 373.817444,496.959717 367.294159,496.981323 
	C350.517395,497.036896 333.740234,496.984467 316.656799,496.624359 
	C325.845642,486.852081 335.340942,477.430664 344.905457,468.469788 
	C344.974640,472.852386 344.974640,476.774414 344.974640,480.747345 
	C350.557037,480.747345 355.473083,480.747345 359.859558,480.747345 
	C359.859558,473.103394 359.859558,465.712494 359.880066,458.101959 
	C359.877808,457.575623 359.756531,457.314789 359.491211,456.753693 
	C359.451324,455.943390 359.456970,455.479156 359.627197,454.731812 
	C363.955688,449.703369 368.094543,444.935394 372.327576,440.252594 
	C372.694733,439.846436 373.683289,440.001953 374.383179,439.896576 
	C374.455933,440.686279 374.528717,441.475983 374.473755,442.759888 
	C374.232422,443.558716 374.322815,443.794495 374.617188,443.961426 
z"/>
<path fill="#6068B3" opacity="1.000000" stroke="none" 
	d="
M344.836273,468.009247 
	C335.340942,477.430664 325.845642,486.852081 316.195221,496.555573 
	C310.685516,496.881897 305.330872,496.926147 299.666077,496.620514 
	C304.243622,491.235443 309.131317,486.200256 314.480835,481.097717 
	C319.524048,481.030365 324.105438,481.030365 329.166595,481.030365 
	C329.166595,475.566589 329.166595,470.782227 329.444763,465.833374 
	C334.761292,460.797028 339.799683,455.925140 344.904053,451.513306 
	C344.925476,457.318665 344.880859,462.663940 344.836273,468.009247 
z"/>
<path fill="#6783CD" opacity="1.000000" stroke="none" 
	d="
M314.019012,481.165070 
	C309.131317,486.200256 304.243622,491.235443 299.206177,496.554565 
	C294.028717,496.881195 289.000916,496.923889 283.663696,496.619812 
	C285.081024,494.503723 286.889130,492.805756 288.516693,490.949463 
	C291.392609,487.669250 294.158569,484.292633 296.976257,480.973267 
	C296.981934,480.990173 296.954071,480.977020 297.303619,480.958252 
	C302.715149,476.309967 307.777130,471.680481 312.902679,467.507568 
	C313.317169,472.364441 313.668091,476.764771 314.019012,481.165070 
z"/>
<path fill="#71AAF7" opacity="1.000000" stroke="none" 
	d="
M264.929779,480.956390 
	C267.691071,478.733002 270.490875,476.555359 273.202148,474.272522 
	C275.579346,472.270966 277.857208,470.151398 280.571167,468.501770 
	C281.312378,473.001099 281.661438,477.082581 281.841248,481.441406 
	C276.797882,486.759369 271.923737,491.799957 267.049622,496.840515 
	C262.343506,496.881592 257.637421,496.922668 252.468262,496.905670 
	C254.753601,493.648224 257.512390,490.457764 260.246307,487.246124 
	C261.825287,485.391327 263.364075,483.502289 264.959717,481.313538 
	C264.998444,480.998444 264.929779,480.956390 264.929779,480.956390 
z"/>
<path fill="#626CB5" opacity="1.000000" stroke="none" 
	d="
M374.507751,439.558990 
	C373.683289,440.001953 372.694733,439.846436 372.327576,440.252594 
	C368.094543,444.935394 363.955688,449.703369 359.492249,454.323181 
	C359.076569,449.858887 358.960449,445.520142 358.901855,440.774963 
	C360.430054,431.666260 367.822723,428.009430 373.702698,423.063843 
	C374.012573,428.449707 374.322449,433.835541 374.507751,439.558990 
z"/>
<path fill="#6A87CE" opacity="1.000000" stroke="none" 
	d="
M373.781494,422.601562 
	C367.822723,428.009430 360.430054,431.666260 358.639130,440.442535 
	C358.042419,434.018951 357.766022,427.521393 357.800537,420.958008 
	C363.010040,416.280518 367.908661,411.668884 372.807312,407.057251 
	C373.158325,412.084595 373.509308,417.111938 373.781494,422.601562 
z"/>
<path fill="#71AAF7" opacity="1.000000" stroke="none" 
	d="
M356.167664,390.007996 
	C361.179535,385.470673 366.191406,380.933319 371.468811,376.235046 
	C372.128723,381.753296 372.523102,387.432495 372.623291,393.353882 
	C371.244965,393.871796 369.869537,393.818420 369.124817,394.477631 
	C364.858459,398.254028 360.741943,402.199707 356.369598,405.731995 
	C356.165680,400.253387 356.166687,395.130707 356.167664,390.007996 
z"/>
<path fill="#6C98E3" opacity="1.000000" stroke="none" 
	d="
M267.509155,496.902588 
	C271.923737,491.799957 276.797882,486.759369 282.302948,481.378021 
	C287.612762,481.010284 292.291687,480.983337 296.970581,480.956360 
	C294.158569,484.292633 291.392609,487.669250 288.516693,490.949463 
	C286.889130,492.805756 285.081024,494.503723 283.204041,496.556152 
	C278.025482,496.881073 272.997101,496.922882 267.509155,496.902588 
z"/>
<path fill="#6C98E3" opacity="1.000000" stroke="none" 
	d="
M356.574524,406.087952 
	C360.741943,402.199707 364.858459,398.254028 369.124817,394.477631 
	C369.869537,393.818420 371.244965,393.871796 372.535156,393.771240 
	C372.751038,395.037842 372.760803,396.129242 372.602234,397.726746 
	C372.296326,398.548492 372.385864,398.796753 372.702576,398.977570 
	C372.774109,401.372253 372.845612,403.766937 372.862244,406.609436 
	C367.908661,411.668884 363.010040,416.280518 357.665436,420.506714 
	C357.004486,415.443512 356.789520,410.765717 356.574524,406.087952 
z"/>
<path fill="#626CB5" opacity="1.000000" stroke="none" 
	d="
M374.696899,443.729004 
	C374.322815,443.794495 374.232422,443.558716 374.450409,443.156097 
	C374.554810,443.058105 374.776581,443.496613 374.696899,443.729004 
z"/>
<path fill="#71AAF7" opacity="1.000000" stroke="none" 
	d="
M372.760590,398.738098 
	C372.385864,398.796753 372.296326,398.548492 372.547150,398.132385 
	C372.660339,398.031921 372.818604,398.498627 372.760590,398.738098 
z"/>
<path fill="#FEFFFF" opacity="1.000000" stroke="none" 
	d="
M356.369629,405.731995 
	C356.789520,410.765717 357.004486,415.443512 357.354553,420.572540 
	C357.766022,427.521393 358.042419,434.018951 358.581543,440.848969 
	C358.960449,445.520142 359.076569,449.858887 359.327667,454.606262 
	C359.456970,455.479156 359.451324,455.943390 359.377319,456.972595 
	C359.354401,457.895813 359.537903,458.157166 359.859558,458.321594 
	C359.859558,465.712494 359.859558,473.103394 359.859558,480.747345 
	C355.473083,480.747345 350.557037,480.747345 344.974640,480.747345 
	C344.974640,476.774414 344.974640,472.852386 344.905457,468.469788 
	C344.880859,462.663940 344.925476,457.318665 344.967468,451.046509 
	C344.922852,445.096802 344.880890,440.073944 344.900696,434.583893 
	C344.921844,429.095276 344.881195,424.073822 344.899872,418.586365 
	C344.921936,413.415436 344.884644,408.710480 344.906036,403.539886 
	C344.976379,393.574799 345.021973,384.075165 344.966949,374.576080 
	C344.957550,372.955170 344.770355,371.248047 344.237518,369.730988 
	C339.205017,355.402527 327.325348,350.277008 313.451996,353.894287 
	C304.589935,356.204956 297.089050,365.091034 297.058868,373.017273 
	C296.962433,398.345886 297.113831,423.675415 297.106995,449.468384 
	C297.083954,455.281769 297.123444,460.631378 297.100769,466.444458 
	C297.010437,471.597626 296.982269,476.287323 296.954071,480.977020 
	C296.954071,480.977020 296.981934,480.990173 296.976257,480.973267 
	C292.291687,480.983337 287.612762,481.010284 282.472168,481.100647 
	C281.661438,477.082581 281.312378,473.001099 280.905731,468.461243 
	C280.897766,436.356903 281.068329,404.710388 280.924377,373.065338 
	C280.880463,363.409515 269.969604,353.221497 260.293640,353.001038 
	C246.175217,352.679291 237.217209,358.251556 233.798065,369.638824 
	C233.241791,371.491455 233.035095,373.513855 233.032440,375.458282 
	C232.987335,408.439392 233.000046,441.420624 233.000000,474.401794 
	C233.000000,476.370117 233.000000,478.338440 233.000000,480.651581 
	C227.678452,480.651581 222.762695,480.651581 217.000000,480.651581 
	C217.000000,478.829834 217.000000,476.917999 217.000000,475.006165 
	C216.999969,441.858398 216.644150,408.704651 217.204208,375.566345 
	C217.385803,364.821869 205.014633,352.156311 194.282654,352.816467 
	C181.725052,353.588928 173.119492,358.755066 169.778320,369.677765 
	C169.213058,371.525665 169.034058,373.555756 169.031479,375.502136 
	C168.987686,408.483246 169.000046,441.464478 169.000000,474.445648 
	C169.000000,476.413086 169.000000,478.380493 169.000000,480.667053 
	C163.982590,480.667053 159.400528,480.667053 154.484100,480.667053 
	C154.331223,479.652710 153.970062,478.547058 154.030685,477.465027 
	C154.974258,460.616913 156.037201,443.775269 156.917999,426.924042 
	C157.178467,421.940826 156.960724,416.932678 156.901672,411.471588 
	C157.228653,408.236511 157.844818,405.475769 157.966125,402.693451 
	C158.709717,385.638000 159.277924,368.574799 160.052109,351.520874 
	C160.260727,346.925415 160.981537,342.353180 161.552963,336.961578 
	C184.257767,336.961578 207.166489,336.961578 230.541321,336.901917 
	C269.468170,336.894867 307.928925,336.947540 346.389648,336.999634 
	C348.358490,337.002289 350.327301,337.000000 352.467468,337.000000 
	C353.002899,342.257294 353.719849,347.127045 353.951294,352.019806 
	C354.436737,362.282318 354.621521,372.558746 355.038971,382.825043 
	C355.125275,384.948395 355.686829,387.052429 356.098511,389.586670 
	C356.166687,395.130707 356.165680,400.253387 356.369629,405.731995 
z"/>
<path fill="#FEFFFF" opacity="1.000000" stroke="none" 
	d="
M393.000000,33.000000 
	C406.159851,33.035793 418.819672,33.069107 431.479462,33.122627 
	C431.776123,33.123878 432.071808,33.352158 432.681458,33.604103 
	C432.681458,38.393574 432.681458,43.308033 432.681458,48.614288 
	C315.645477,48.614288 198.641556,48.614288 81.318619,48.614288 
	C81.318619,43.605244 81.318619,38.690884 81.318619,33.000000 
	C185.066116,33.000000 288.783051,33.000000 393.000000,33.000000 
z"/>
<path fill="#FEFFFF" opacity="1.000000" stroke="none" 
	d="
M371.009521,134.263336 
	C371.278473,141.486725 376.425018,145.152252 382.661743,142.973541 
	C393.040588,139.347885 400.648132,124.749458 398.604431,113.949280 
	C396.487671,102.763069 390.888458,94.500053 380.781952,89.397346 
	C369.291016,83.595665 358.077057,85.316750 347.239227,91.261276 
	C324.957672,103.482681 324.347687,133.520325 337.107056,150.574677 
	C338.784210,152.816360 340.592743,154.959747 342.342316,157.142532 
	C338.329956,160.558121 335.420013,159.787491 331.299011,156.236771 
	C326.290802,151.921631 319.786163,149.368988 314.057251,145.845200 
	C312.738434,145.034012 311.298889,143.507919 311.000885,142.083603 
	C305.734406,116.911858 310.220001,94.373840 330.042114,76.606361 
	C337.856384,69.602074 347.360229,66.336945 358.086151,65.833313 
	C369.295502,65.306976 379.560608,67.313011 388.980469,73.424896 
	C403.132721,82.607315 410.906921,96.028343 411.783142,112.454338 
	C413.124084,137.591660 388.907776,159.481003 362.861206,150.015778 
	C346.686127,144.137772 340.861969,122.841431 350.036743,111.081795 
	C354.830750,104.937180 361.605865,101.943817 369.265869,103.198730 
	C375.523224,104.223854 379.736298,108.580444 381.443512,114.917793 
	C382.826233,120.050652 380.579834,123.644310 376.757843,126.906860 
	C374.506714,128.828461 372.908386,131.514755 371.009521,134.263336 
z"/>
<path fill="#FEFFFF" opacity="1.000000" stroke="none" 
	d="
M139.025116,152.000000 
	C122.217896,152.970078 106.506371,138.594452 103.129936,122.804375 
	C97.442276,96.205788 119.360039,67.999100 147.670242,65.727768 
	C178.725830,63.236168 200.579071,87.067101 204.118195,114.055695 
	C205.360703,123.530815 205.525711,132.817322 203.014816,142.032883 
	C202.618790,143.486420 201.295898,144.992157 199.990280,145.841644 
	C193.538300,150.039581 186.506378,153.477966 180.561691,158.277527 
	C176.595016,161.480087 174.534088,157.725342 170.987610,157.772949 
	C177.761353,150.454758 182.884201,142.689117 184.441650,133.091614 
	C186.714951,119.082855 184.429947,106.215515 173.599976,96.223839 
	C163.425262,86.836685 150.938110,83.104469 137.813873,87.401787 
	C117.189850,94.154800 107.794266,117.748978 121.820885,136.018265 
	C124.183243,139.095169 128.196945,141.187256 131.833710,142.927689 
	C135.949829,144.897537 140.659851,142.695862 142.633514,138.708481 
	C144.219650,135.504028 142.648880,130.491943 139.312302,128.111008 
	C131.748734,122.713730 130.364151,118.584129 133.780869,111.613449 
	C136.997711,105.050537 144.820358,101.391533 151.738159,103.363525 
	C169.021774,108.290398 171.635574,124.354309 164.962463,137.359924 
	C159.780472,147.459412 151.032700,152.424133 139.025116,152.000000 
z"/>
<path fill="#FEFFFF" opacity="1.000000" stroke="none" 
	d="
M294.541351,272.901978 
	C318.314026,272.895111 341.620758,272.919586 364.926971,273.044861 
	C367.194214,273.057037 369.554108,273.398804 371.702271,274.102661 
	C375.450348,275.330750 376.302124,278.327423 376.058105,282.031982 
	C375.822113,285.614288 373.997345,287.454590 370.656525,288.011993 
	C368.233490,288.416321 365.787018,288.951019 363.349701,288.957794 
	C335.212311,289.035980 307.074707,289.024445 278.472229,289.097107 
	C235.705093,289.104950 193.402786,289.069580 151.100677,288.958679 
	C148.494843,288.951843 145.877701,288.428589 143.288574,288.006165 
	C139.328339,287.360016 137.928391,284.847290 137.941788,280.964203 
	C137.955231,277.072662 139.393921,274.607971 143.358337,273.981689 
	C145.787338,273.597992 148.233200,273.044708 150.672150,273.041229 
	C198.473145,272.972870 246.274216,272.974274 294.541351,272.901978 
z"/>
<path fill="#FEFFFF" opacity="1.000000" stroke="none" 
	d="
M262.541351,304.901947 
	C290.126282,304.842499 317.245178,304.842499 344.680481,304.842499 
	C344.680481,310.382812 344.680481,315.299194 344.680481,321.036774 
	C312.095245,321.036774 279.516205,321.036774 246.472275,321.097107 
	C220.553726,321.157440 195.100082,321.157440 169.324738,321.157440 
	C169.324738,315.617371 169.324738,310.702606 169.324738,304.961395 
	C200.247940,304.961395 231.161606,304.961395 262.541351,304.901947 
z"/>
<path fill="#FEFFFF" opacity="1.000000" stroke="none" 
	d="
M248.341614,153.596039 
	C241.041901,150.813446 234.056351,147.965881 227.205460,144.824661 
	C225.870453,144.212540 224.221832,142.516693 224.132370,141.222916 
	C222.939438,123.969757 224.649704,107.072205 233.248566,91.735176 
	C237.190933,84.703529 242.588287,78.487640 247.325821,71.901810 
	C247.883881,72.194633 248.441940,72.487465 249.000000,72.780289 
	C249.000000,74.371033 249.000000,75.961784 249.000000,77.552528 
	C249.000000,101.192162 249.005951,124.831795 248.987228,148.471405 
	C248.985916,150.123840 248.801865,151.776123 248.341614,153.596039 
z"/>
<path fill="#FEFFFF" opacity="1.000000" stroke="none" 
	d="
M290.000000,124.180069 
	C289.999420,129.981018 290.176453,135.313156 289.880432,140.618912 
	C289.800873,142.044846 288.594299,144.140869 287.372375,144.649551 
	C280.161865,147.651184 272.794098,150.275040 265.343628,153.077118 
	C265.343628,126.662506 265.343628,99.726105 265.343628,71.983727 
	C280.960693,86.236549 287.961182,103.773796 290.000000,124.180069 
z"/>
<path fill="#FEFFFF" opacity="1.000000" stroke="none" 
	d="
M236.638443,225.316650 
	C232.586609,223.942230 228.892090,222.747681 225.004700,221.490768 
	C241.013046,205.807495 272.912506,205.845993 288.994263,221.424698 
	C278.595367,224.948898 268.404419,228.478104 258.140717,231.781189 
	C256.919220,232.174301 255.254532,231.478577 253.874222,231.039413 
	C248.231400,229.244156 242.619217,227.352600 236.638443,225.316650 
z"/>
<path fill="#FEFFFF" opacity="1.000000" stroke="none" 
	d="
M147.289886,185.677032 
	C139.938248,182.809067 132.906158,180.139236 126.085052,177.549515 
	C146.853455,164.432541 177.666794,170.146210 187.920502,196.289886 
	C185.129532,195.844223 182.482895,195.170578 179.811508,195.051147 
	C175.278351,194.848511 170.547989,194.205109 166.233688,195.196671 
	C160.922455,196.417374 158.598907,192.544495 155.138748,190.522949 
	C152.592865,189.035538 150.116684,187.428757 147.289886,185.677032 
z"/>
<path fill="#FEFFFF" opacity="1.000000" stroke="none" 
	d="
M388.535095,176.999939 
	C388.899048,177.036926 388.959167,177.457001 388.662659,177.725586 
	C387.892151,178.317459 387.418182,178.640747 386.944214,178.964050 
	C386.944214,178.964066 386.972198,178.972778 386.963013,178.955017 
	C375.486176,180.328476 365.273651,184.982147 356.586426,192.289703 
	C353.456909,194.922180 350.708801,194.931656 347.344116,195.027130 
	C341.180023,195.202042 335.022766,195.612442 328.861450,195.898026 
	C328.053894,195.935455 327.239105,195.815933 326.369446,195.765747 
	C331.779053,181.426132 346.582428,171.291611 361.410553,170.904526 
	C370.954987,170.655365 379.694244,172.989853 388.535095,176.999939 
z"/>
<path fill="#FEFFFF" opacity="1.000000" stroke="none" 
	d="
M437.932709,128.563934 
	C433.887909,135.807175 429.123627,141.974869 422.247528,146.185730 
	C421.081116,146.900024 419.644928,147.173737 418.220490,147.338257 
	C435.658722,120.682541 430.179779,95.814827 413.440063,71.736542 
	C428.248169,77.123413 446.975830,100.584213 437.932709,128.563934 
z"/>
<path fill="#FEFFFF" opacity="1.000000" stroke="none" 
	d="
M96.927048,73.028992 
	C98.170364,72.305817 99.084778,71.689644 99.999184,71.073479 
	C83.270142,95.750244 79.004196,120.998863 95.768646,147.676743 
	C85.805153,144.657288 74.829666,130.485962 73.923988,119.566055 
	C72.256424,99.460022 80.596367,84.488014 96.927048,73.028992 
z"/>
<path fill="#FEFFFF" opacity="1.000000" stroke="none" 
	d="
M275.981232,187.072037 
	C275.690735,187.706848 275.443451,187.966721 275.349060,188.273621 
	C273.731537,193.533218 270.721527,195.540497 265.125610,192.066086 
	C264.450897,181.375046 268.296356,172.338852 278.011719,166.689270 
	C289.181091,160.194199 300.899261,156.872528 313.951263,164.750351 
	C304.537567,165.244232 295.915619,166.389450 289.226837,172.098862 
	C284.288208,176.314377 280.433350,181.799515 275.981232,187.072037 
z"/>
<path fill="#FEFFFF" opacity="1.000000" stroke="none" 
	d="
M236.727386,167.203613 
	C245.504013,172.774170 249.857666,182.128433 248.600204,192.290421 
	C243.720718,195.080658 241.173813,193.690262 238.604156,188.534943 
	C230.996445,173.272095 218.554611,164.912552 201.001099,164.967041 
	C208.751419,157.967194 222.373093,158.541870 236.727386,167.203613 
z"/>
<path fill="#FEFFFF" opacity="1.000000" stroke="none" 
	d="
M184.964417,257.000000 
	C180.311615,256.999237 176.139862,257.174164 171.998398,256.896667 
	C170.657349,256.806824 168.459183,255.737137 168.245026,254.764969 
	C166.424072,246.498306 162.685211,239.316330 157.059158,233.050140 
	C156.754059,232.710327 156.722610,232.124802 156.561005,231.645432 
	C171.554062,231.288040 190.473709,243.801620 195.928741,257.000000 
	C192.260132,257.000000 188.858673,257.000000 184.964417,257.000000 
z"/>
<path fill="#FEFFFF" opacity="1.000000" stroke="none" 
	d="
M304.294006,80.339264 
	C302.539764,83.348862 300.973938,86.043274 299.299713,88.924187 
	C294.198242,81.023643 289.180298,73.252487 284.105042,65.392563 
	C294.484253,65.392563 305.299835,65.392563 316.057312,65.392563 
	C312.282562,70.164146 308.382477,75.094116 304.294006,80.339264 
z"/>
<path fill="#FEFFFF" opacity="1.000000" stroke="none" 
	d="
M208.051300,65.000000 
	C215.764542,65.000000 222.986938,65.000000 230.176651,65.000000 
	C224.951904,73.069809 219.930969,80.824829 215.134109,88.233742 
	C209.615784,80.726601 203.893585,72.942123 198.055496,65.000000 
	C201.051117,65.000000 204.305786,65.000000 208.051300,65.000000 
z"/>
<path fill="#FEFFFF" opacity="1.000000" stroke="none" 
	d="
M308.383362,182.314545 
	C310.228271,182.145432 311.710052,182.145432 312.415833,182.145432 
	C309.552063,191.446945 306.646973,200.882736 303.718597,210.394104 
	C299.332581,207.255493 294.338837,203.682007 288.871033,199.769272 
	C292.784485,191.481583 297.394257,183.803329 308.383362,182.314545 
z"/>
<path fill="#FEFFFF" opacity="1.000000" stroke="none" 
	d="
M206.731583,196.500427 
	C204.709869,191.586731 202.844193,187.050186 201.006653,182.582108 
	C212.753143,181.220459 220.230301,187.886032 224.824371,199.988205 
	C219.806015,203.570480 214.799744,207.144135 209.559433,210.884842 
	C208.644714,206.089355 207.766174,201.483475 206.731583,196.500427 
z"/>
<path fill="#FEFFFF" opacity="1.000000" stroke="none" 
	d="
M288.135345,239.429901 
	C288.848663,239.722992 289.659546,240.321777 289.563599,240.672729 
	C289.264008,241.768890 288.533295,242.737930 288.125671,243.815262 
	C282.490417,258.708771 282.136810,258.915131 265.652740,256.533875 
	C263.828094,247.797455 263.912781,247.651993 272.406250,244.801392 
	C277.544159,243.076996 282.680817,241.348755 288.135345,239.429901 
z"/>
<path fill="#FEFFFF" opacity="1.000000" stroke="none" 
	d="
M248.999878,252.102081 
	C248.917908,253.841919 248.835983,255.128799 248.719086,256.964996 
	C243.259644,256.964996 238.009811,257.051880 232.768372,256.881195 
	C231.873062,256.852051 230.567108,255.910522 230.210815,255.068787 
	C228.063675,249.996094 226.137924,244.829651 223.805649,238.841034 
	C231.943008,241.513458 239.395935,243.746262 246.631699,246.541260 
	C247.890900,247.027679 248.233826,249.886200 248.999878,252.102081 
z"/>
<path fill="#FEFFFF" opacity="1.000000" stroke="none" 
	d="
M202.958466,232.880188 
	C203.388733,234.258591 203.710785,235.289322 204.032852,236.320038 
	C191.581924,224.181152 177.201828,216.598572 160.177750,214.674683 
	C175.759460,205.847900 195.699173,214.091049 202.958466,232.880188 
z"/>
<path fill="#FEFFFF" opacity="1.000000" stroke="none" 
	d="
M354.541504,214.065765 
	C354.178284,214.417984 353.421753,214.728531 352.336243,215.098511 
	C340.499878,216.029984 330.498627,220.827484 321.271179,227.339966 
	C317.419495,230.058380 314.041351,233.447678 310.296143,236.662170 
	C311.830322,225.373581 323.046295,214.296326 333.904205,211.870651 
	C341.114227,210.259933 347.526733,212.189163 354.541504,214.065765 
z"/>
<path fill="#FEFFFF" opacity="1.000000" stroke="none" 
	d="
M200.975494,478.708801 
	C200.312668,479.773407 199.684509,480.859833 199.019836,480.882721 
	C194.565659,481.035645 190.103714,480.962219 185.000061,480.962219 
	C185.000061,478.781250 185.000046,477.011719 185.000046,475.242188 
	C185.000046,444.279755 184.977829,413.317261 185.042908,382.354980 
	C185.048019,379.918549 185.047028,377.141998 186.159561,375.141083 
	C187.332916,373.030792 189.581650,370.906525 191.822037,370.143738 
	C195.251862,368.975952 198.532745,370.430664 199.844772,374.094482 
	C200.656845,376.362091 200.948669,378.924866 200.953705,381.356232 
	C201.020721,413.650238 200.995499,445.944489 200.975494,478.708801 
z"/>
<path fill="#FEFFFF" opacity="1.000000" stroke="none" 
	d="
M264.977417,480.964111 
	C259.834564,480.929779 254.712738,480.929779 249.000046,480.929779 
	C249.000046,478.719482 249.000046,476.941132 249.000046,475.162781 
	C249.000046,444.341919 248.975967,413.520966 249.043472,382.700256 
	C249.049179,380.095276 249.506775,377.458038 250.040619,374.895386 
	C250.798294,371.258179 253.293930,369.880493 256.927490,369.871674 
	C260.523926,369.862946 263.088287,371.159821 263.944366,374.753052 
	C264.512909,377.139648 264.951813,379.625458 264.956299,382.067749 
	C265.016296,414.721069 264.989380,447.374573 264.956909,480.492188 
	C264.929779,480.956390 264.998444,480.998444 264.977417,480.964111 
z"/>
<path fill="#FEFFFF" opacity="1.000000" stroke="none" 
	d="
M341.618866,256.998383 
	C333.585968,256.999329 326.014648,256.999329 317.538025,256.999329 
	C326.908234,241.089401 340.240814,233.287277 358.445648,231.144302 
	C356.403809,233.600220 354.500275,235.204651 353.480011,237.249756 
	C350.785706,242.650314 348.609375,248.309219 345.917633,253.711197 
	C345.225983,255.099289 343.390472,255.917435 341.618866,256.998383 
z"/>
<path fill="#73BFFE" opacity="1.000000" stroke="none" 
	d="
M387.257019,178.954010 
	C387.418182,178.640747 387.892151,178.317459 388.668030,177.937683 
	C388.503265,178.235474 388.036560,178.589737 387.257019,178.954010 
z"/>
<path fill="#626CB5" opacity="1.000000" stroke="none" 
	d="
M359.880066,458.101959 
	C359.537903,458.157166 359.354401,457.895813 359.422882,457.318665 
	C359.756531,457.314789 359.877808,457.575623 359.880066,458.101959 
z"/>
<path fill="#FEFFFF" opacity="1.000000" stroke="none" 
	d="
M314.480835,481.097717 
	C313.668091,476.764771 313.317169,472.364441 312.964478,467.040466 
	C312.921997,461.094879 312.881256,456.072998 312.900879,450.584106 
	C312.923309,445.413208 312.885437,440.709351 312.906281,435.539825 
	C312.976685,417.453583 312.984222,399.833008 313.001862,382.212402 
	C313.009949,374.107666 316.234680,368.995544 321.189392,369.193695 
	C326.058502,369.388397 328.970184,374.217834 329.002350,382.104767 
	C329.049744,393.738068 329.112885,405.371277 329.106812,417.468323 
	C329.083862,423.282196 329.123474,428.632263 329.100006,434.447205 
	C329.079712,439.936676 329.122498,444.961273 329.100159,450.449493 
	C329.078888,455.941376 329.122742,460.969635 329.166595,465.997864 
	C329.166595,470.782227 329.166595,475.566589 329.166595,481.030365 
	C324.105438,481.030365 319.524048,481.030365 314.480835,481.097717 
z"/>
<path fill="#6783CD" opacity="1.000000" stroke="none" 
	d="
M329.444763,465.833374 
	C329.122742,460.969635 329.078888,455.941376 329.378510,450.287903 
	C334.760986,444.792114 339.799957,439.921600 344.838928,435.051056 
	C344.880890,440.073944 344.922852,445.096802 344.901428,450.586487 
	C339.799683,455.925140 334.761292,460.797028 329.444763,465.833374 
z"/>
<path fill="#6C98E3" opacity="1.000000" stroke="none" 
	d="
M312.840515,451.051086 
	C312.881256,456.072998 312.921997,461.094879 312.900909,466.583862 
	C307.777130,471.680481 302.715149,476.309967 297.303619,480.958252 
	C296.982269,476.287323 297.010437,471.597626 297.379272,466.284424 
	C302.760101,460.790985 307.800293,455.921051 312.840515,451.051086 
z"/>
<path fill="#73B0FE" opacity="1.000000" stroke="none" 
	d="
M329.169312,417.004547 
	C329.112885,405.371277 329.049744,393.738068 329.002350,382.104767 
	C328.970184,374.217834 326.058502,369.388397 321.189392,369.193695 
	C316.234680,368.995544 313.009949,374.107666 313.001862,382.212402 
	C312.984222,399.833008 312.976685,417.453583 312.574097,435.579010 
	C310.346954,437.664429 308.510803,439.245178 306.674377,440.825562 
	C303.506195,443.552002 300.337799,446.278259 297.169495,449.004578 
	C297.113831,423.675415 296.962433,398.345886 297.058868,373.017273 
	C297.089050,365.091034 304.589935,356.204956 313.451996,353.894287 
	C327.325348,350.277008 339.205017,355.402527 344.237518,369.730988 
	C344.770355,371.248047 344.957550,372.955170 344.966949,374.576080 
	C345.021973,384.075165 344.976379,393.574799 344.573853,403.578979 
	C342.346741,405.664398 340.510712,407.245300 338.674255,408.825653 
	C335.506073,411.552124 332.337616,414.278259 329.169312,417.004547 
z"/>
<path fill="#71AAF7" opacity="1.000000" stroke="none" 
	d="
M329.106781,417.468323 
	C332.337616,414.278259 335.506073,411.552124 338.674255,408.825653 
	C340.510712,407.245300 342.346741,405.664398 344.515167,404.044617 
	C344.884644,408.710480 344.921936,413.415436 344.617432,418.736816 
	C339.238129,424.229645 334.200592,429.105988 329.163086,433.982330 
	C329.123474,428.632263 329.083862,423.282196 329.106781,417.468323 
z"/>
<path fill="#6C98E3" opacity="1.000000" stroke="none" 
	d="
M329.099976,434.447205 
	C334.200592,429.105988 339.238129,424.229645 344.558105,419.202820 
	C344.881195,424.073822 344.921844,429.095276 344.900726,434.583893 
	C339.799957,439.921600 334.760986,444.792114 329.443665,449.824249 
	C329.122498,444.961273 329.079712,439.936676 329.099976,434.447205 
z"/>
<path fill="#71AAF7" opacity="1.000000" stroke="none" 
	d="
M297.106995,449.468384 
	C300.337799,446.278259 303.506195,443.552002 306.674377,440.825562 
	C308.510803,439.245178 310.346954,437.664429 312.515381,436.044647 
	C312.885437,440.709351 312.923309,445.413208 312.900848,450.584106 
	C307.800293,455.921051 302.760101,460.790985 297.441406,465.820923 
	C297.123444,460.631378 297.083954,455.281769 297.106995,449.468384 
z"/>
</svg>